<?xml version="1.0" encoding="utf-8"?>
<!-- Generator: Adobe Illustrator 25.3.1, SVG Export Plug-In . SVG Version: 6.00 Build 0)  -->
<svg version="1.1" id="logo_svg" xmlns="http://www.w3.org/2000/svg" xmlns:xlink="http://www.w3.org/1999/xlink" x="0px" y="0px"
	 viewBox="0 0 118.9 74.3" style="enable-background:new 0 0 118.9 74.3;" xml:space="preserve">
<style type="text/css">
<!--	.st0{fill:#0582EE;}-->
</style>
<path class="st0" d="M41.4,65.1l-18.9-1.2c-6.3-0.4-11.3-5.6-11.3-12V22.5c0-6.4,4.9-11.6,11.3-12l18.9-1.2L46.7,0H11.9
	C5.3,0,0,5.3,0,11.9l0,0v50.6C0,69,5.3,74.3,11.9,74.3h34.8L41.4,65.1z"/>
<path class="st0" d="M107.1,0H72.2l5.3,9.3l18.9,1.2c6.4,0.4,11.3,5.6,11.3,12v29.4c0,6.4-4.9,11.6-11.3,12l-18.9,1.2l-5.3,9.3H107
	c6.6,0,11.9-5.3,11.9-11.9V11.9C118.9,5.3,113.6,0,107.1,0z"/>
<circle class="st0" cx="59.5" cy="5.9" r="5.9"/>
<path class="st0" d="M46.1,49.1h26.8c0.6,0,1,0.4,1,1v5.4c0,0.6-0.4,1-1,1H46.1c-0.6,0-1-0.4-1-1v-5.4
	C45.1,49.5,45.5,49.1,46.1,49.1z"/>
<path class="st0" d="M37.1,33.5h44.7c0.6,0,1,0.4,1,1v5.4c0,0.6-0.4,1-1,1H37.1c-0.6,0-1-0.4-1-1v-5.4
	C36.1,33.9,36.6,33.5,37.1,33.5z"/>
<path class="st0" d="M72.9,25.3H46.1c-0.6,0-1-0.4-1-1v-5.4c0-0.6,0.4-1,1-1h26.8c0.6,0,1,0.4,1,1v5.4
	C73.9,24.8,73.4,25.3,72.9,25.3z"/>
<circle class="st0" cx="59.5" cy="68.4" r="5.9"/>
</svg>
